<svg xmlns="http://www.w3.org/2000/svg" width="585" height="114"><text x="59" y="12" font-size="10" fill="#7d8590" font-family="sans-serif">Oct</text><text x="107" y="12" font-size="10" fill="#7d8590" font-family="sans-serif">Nov</text><text x="167" y="12" font-size="10" fill="#7d8590" font-family="sans-serif">Dec</text><text x="215" y="12" font-size="10" fill="#7d8590" font-family="sans-serif">Jan</text><text x="275" y="12" font-size="10" fill="#7d8590" font-family="sans-serif">Feb</text><text x="323" y="12" font-size="10" fill="#7d8590" font-family="sans-serif">Mar</text><text x="371" y="12" font-size="10" fill="#7d8590" font-family="sans-serif">Apr</text><text x="419" y="12" font-size="10" fill="#7d8590" font-family="sans-serif">May</text><text x="479" y="12" font-size="10" fill="#7d8590" font-family="sans-serif">Jun</text><text x="527" y="12" font-size="10" fill="#7d8590" font-family="sans-serif">Jul</text><text x="30" y="65" text-anchor="end" font-size="10" fill="#7d8590" font-family="sans-serif">Wed</text><text x="30" y="89" text-anchor="end" font-size="10" fill="#7d8590" font-family="sans-serif">Fri</text><text x="30" y="41" text-anchor="end" font-size="10" fill="#7d8590" font-family="sans-serif">Mon</text><rect x="35" y="20" width="10" height="10" rx="2" ry="2" fill="#3b444c99"/><rect x="35" y="32" width="10" height="10" rx="2" ry="2" fill="#3b444c99"/><rect x="35" y="44" width="10" height="10" rx="2" ry="2" fill="#3b444c99"/><rect x="35" y="56" width="10" height="10" rx="2" ry="2" fill="#3b444c99"/><rect x="35" y="68" width="10" height="10" rx="2" ry="2" fill="#176634"/><rect x="35" y="80" width="10" height="10" rx="2" ry="2" fill="#3b444c99"/><rect x="35" y="92" width="10" height="10" rx="2" ry="2" fill="#3b444c99"/><rect x="47" y="20" width="10" height="10" rx="2" ry="2" fill="#3b444c99"/><rect x="47" y="32" width="10" height="10" rx="2" ry="2" fill="#3b444c99"/><rect x="47" y="44" width="10" height="10" rx="2" ry="2" fill="#3b444c99"/><rect x="47" y="56" width="10" height="10" rx="2" ry="2" fill="#3b444c99"/><rect x="47" y="68" width="10" height="10" rx="2" ry="2" fill="#3b444c99"/><rect x="47" y="80" width="10" height="10" rx="2" ry="2" fill="#176634"/><rect x="47" y="92" width="10" height="10" rx="2" ry="2" fill="#3b444c99"/><rect x="59" y="20" width="10" height="10" rx="2" ry="2" fill="#3b444c99"/><rect x="59" y="32" width="10" height="10" rx="2" ry="2" fill="#3b444c99"/><rect x="59" y="44" width="10" height="10" rx="2" ry="2" fill="#3b444c99"/><rect x="59" y="56" width="10" height="10" rx="2" ry="2" fill="#47a25b"/><rect x="59" y="68" width="10" height="10" rx="2" ry="2" fill="#3b444c99"/><rect x="59" y="80" width="10" height="10" rx="2" ry="2" fill="#1a6a37"/><rect x="59" y="92" width="10" height="10" rx="2" ry="2" fill="#196936"/><rect x="71" y="20" width="10" height="10" rx="2" ry="2" fill="#267940"/><rect x="71" y="32" width="10" height="10" rx="2" ry="2" fill="#186735"/><rect x="71" y="44" width="10" height="10" rx="2" ry="2" fill="#3b444c99"/><rect x="71" y="56" width="10" height="10" rx="2" ry="2" fill="#3b444c99"/><rect x="71" y="68" width="10" height="10" rx="2" ry="2" fill="#3b444c99"/><rect x="71" y="80" width="10" height="10" rx="2" ry="2" fill="#3b444c99"/><rect x="71" y="92" width="10" height="10" rx="2" ry="2" fill="#3b444c99"/><rect x="83" y="20" width="10" height="10" rx="2" ry="2" fill="#3b444c99"/><rect x="83" y="32" width="10" height="10" rx="2" ry="2" fill="#3b444c99"/><rect x="83" y="44" width="10" height="10" rx="2" ry="2" fill="#3b444c99"/><rect x="83" y="56" width="10" height="10" rx="2" ry="2" fill="#3b444c99"/><rect x="83" y="68" width="10" height="10" rx="2" ry="2" fill="#3b444c99"/><rect x="83" y="80" width="10" height="10" rx="2" ry="2" fill="#3b444c99"/><rect x="83" y="92" width="10" height="10" rx="2" ry="2" fill="#3b444c99"/><rect x="95" y="20" width="10" height="10" rx="2" ry="2" fill="#3b444c99"/><rect x="95" y="32" width="10" height="10" rx="2" ry="2" fill="#3b444c99"/><rect x="95" y="44" width="10" height="10" rx="2" ry="2" fill="#3b444c99"/><rect x="95" y="56" width="10" height="10" rx="2" ry="2" fill="#3b444c99"/><rect x="95" y="68" width="10" height="10" rx="2" ry="2" fill="#3b444c99"/><rect x="95" y="80" width="10" height="10" rx="2" ry="2" fill="#3b444c99"/><rect x="95" y="92" width="10" height="10" rx="2" ry="2" fill="#3b444c99"/><rect x="107" y="20" width="10" height="10" rx="2" ry="2" fill="#3b444c99"/><rect x="107" y="32" width="10" height="10" rx="2" ry="2" fill="#3b444c99"/><rect x="107" y="44" width="10" height="10" rx="2" ry="2" fill="#3b444c99"/><rect x="107" y="56" width="10" height="10" rx="2" ry="2" fill="#3b444c99"/><rect x="107" y="68" width="10" height="10" rx="2" ry="2" fill="#66c974"/><rect x="107" y="80" width="10" height="10" rx="2" ry="2" fill="#1e6f3a"/><rect x="107" y="92" width="10" height="10" rx="2" ry="2" fill="#21733d"/><rect x="119" y="20" width="10" height="10" rx="2" ry="2" fill="#1b6c38"/><rect x="119" y="32" width="10" height="10" rx="2" ry="2" fill="#186735"/><rect x="119" y="44" width="10" height="10" rx="2" ry="2" fill="#3b444c99"/><rect x="119" y="56" width="10" height="10" rx="2" ry="2" fill="#3b444c99"/><rect x="119" y="68" width="10" height="10" rx="2" ry="2" fill="#176634"/><rect x="119" y="80" width="10" height="10" rx="2" ry="2" fill="#3b444c99"/><rect x="119" y="92" width="10" height="10" rx="2" ry="2" fill="#3b444c99"/><rect x="131" y="20" width="10" height="10" rx="2" ry="2" fill="#247740"/><rect x="131" y="32" width="10" height="10" rx="2" ry="2" fill="#57b668"/><rect x="131" y="44" width="10" height="10" rx="2" ry="2" fill="#73d97f"/><rect x="131" y="56" width="10" height="10" rx="2" ry="2" fill="#196936"/><rect x="131" y="68" width="10" height="10" rx="2" ry="2" fill="#3b444c99"/><rect x="131" y="80" width="10" height="10" rx="2" ry="2" fill="#3b444c99"/><rect x="131" y="92" width="10" height="10" rx="2" ry="2" fill="#3b444c99"/><rect x="143" y="20" width="10" height="10" rx="2" ry="2" fill="#3b444c99"/><rect x="143" y="32" width="10" height="10" rx="2" ry="2" fill="#3b444c99"/><rect x="143" y="44" width="10" height="10" rx="2" ry="2" fill="#3b444c99"/><rect x="143" y="56" width="10" height="10" rx="2" ry="2" fill="#176634"/><rect x="143" y="68" width="10" height="10" rx="2" ry="2" fill="#176634"/><rect x="143" y="80" width="10" height="10" rx="2" ry="2" fill="#3b444c99"/><rect x="143" y="92" width="10" height="10" rx="2" ry="2" fill="#186735"/><rect x="155" y="20" width="10" height="10" rx="2" ry="2" fill="#3b444c99"/><rect x="155" y="32" width="10" height="10" rx="2" ry="2" fill="#3b444c99"/><rect x="155" y="44" width="10" height="10" rx="2" ry="2" fill="#3b444c99"/><rect x="155" y="56" width="10" height="10" rx="2" ry="2" fill="#3b444c99"/><rect x="155" y="68" width="10" height="10" rx="2" ry="2" fill="#3b444c99"/><rect x="155" y="80" width="10" height="10" rx="2" ry="2" fill="#3b444c99"/><rect x="155" y="92" width="10" height="10" rx="2" ry="2" fill="#3b444c99"/><rect x="167" y="20" width="10" height="10" rx="2" ry="2" fill="#3b444c99"/><rect x="167" y="32" width="10" height="10" rx="2" ry="2" fill="#3b444c99"/><rect x="167" y="44" width="10" height="10" rx="2" ry="2" fill="#176634"/><rect x="167" y="56" width="10" height="10" rx="2" ry="2" fill="#176634"/><rect x="167" y="68" width="10" height="10" rx="2" ry="2" fill="#2c8146"/><rect x="167" y="80" width="10" height="10" rx="2" ry="2" fill="#186735"/><rect x="167" y="92" width="10" height="10" rx="2" ry="2" fill="#176634"/><rect x="179" y="20" width="10" height="10" rx="2" ry="2" fill="#196936"/><rect x="179" y="32" width="10" height="10" rx="2" ry="2" fill="#176634"/><rect x="179" y="44" width="10" height="10" rx="2" ry="2" fill="#3b444c99"/><rect x="179" y="56" width="10" height="10" rx="2" ry="2" fill="#3b444c99"/><rect x="179" y="68" width="10" height="10" rx="2" ry="2" fill="#3b444c99"/><rect x="179" y="80" width="10" height="10" rx="2" ry="2" fill="#3b444c99"/><rect x="179" y="92" width="10" height="10" rx="2" ry="2" fill="#1a6a37"/><rect x="191" y="20" width="10" height="10" rx="2" ry="2" fill="#3b444c99"/><rect x="191" y="32" width="10" height="10" rx="2" ry="2" fill="#176634"/><rect x="191" y="44" width="10" height="10" rx="2" ry="2" fill="#3b444c99"/><rect x="191" y="56" width="10" height="10" rx="2" ry="2" fill="#3b444c99"/><rect x="191" y="68" width="10" height="10" rx="2" ry="2" fill="#3b444c99"/><rect x="191" y="80" width="10" height="10" rx="2" ry="2" fill="#3b444c99"/><rect x="191" y="92" width="10" height="10" rx="2" ry="2" fill="#176634"/><rect x="203" y="20" width="10" height="10" rx="2" ry="2" fill="#3b444c99"/><rect x="203" y="32" width="10" height="10" rx="2" ry="2" fill="#3b444c99"/><rect x="203" y="44" width="10" height="10" rx="2" ry="2" fill="#3b444c99"/><rect x="203" y="56" width="10" height="10" rx="2" ry="2" fill="#3b444c99"/><rect x="203" y="68" width="10" height="10" rx="2" ry="2" fill="#3b444c99"/><rect x="203" y="80" width="10" height="10" rx="2" ry="2" fill="#3b444c99"/><rect x="203" y="92" width="10" height="10" rx="2" ry="2" fill="#3b444c99"/><rect x="215" y="20" width="10" height="10" rx="2" ry="2" fill="#3b444c99"/><rect x="215" y="32" width="10" height="10" rx="2" ry="2" fill="#247740"/><rect x="215" y="44" width="10" height="10" rx="2" ry="2" fill="#1a6a37"/><rect x="215" y="56" width="10" height="10" rx="2" ry="2" fill="#3b444c99"/><rect x="215" y="68" width="10" height="10" rx="2" ry="2" fill="#3b444c99"/><rect x="215" y="80" width="10" height="10" rx="2" ry="2" fill="#3b444c99"/><rect x="215" y="92" width="10" height="10" rx="2" ry="2" fill="#3b444c99"/><rect x="227" y="20" width="10" height="10" rx="2" ry="2" fill="#3b444c99"/><rect x="227" y="32" width="10" height="10" rx="2" ry="2" fill="#176634"/><rect x="227" y="44" width="10" height="10" rx="2" ry="2" fill="#20713c"/><rect x="227" y="56" width="10" height="10" rx="2" ry="2" fill="#20713c"/><rect x="227" y="68" width="10" height="10" rx="2" ry="2" fill="#176634"/><rect x="227" y="80" width="10" height="10" rx="2" ry="2" fill="#47a25b"/><rect x="227" y="92" width="10" height="10" rx="2" ry="2" fill="#3b444c99"/><rect x="239" y="20" width="10" height="10" rx="2" ry="2" fill="#3b444c99"/><rect x="239" y="32" width="10" height="10" rx="2" ry="2" fill="#3b444c99"/><rect x="239" y="44" width="10" height="10" rx="2" ry="2" fill="#3b444c99"/><rect x="239" y="56" width="10" height="10" rx="2" ry="2" fill="#3b444c99"/><rect x="239" y="68" width="10" height="10" rx="2" ry="2" fill="#3b444c99"/><rect x="239" y="80" width="10" height="10" rx="2" ry="2" fill="#3b444c99"/><rect x="239" y="92" width="10" height="10" rx="2" ry="2" fill="#3b444c99"/><rect x="251" y="20" width="10" height="10" rx="2" ry="2" fill="#176634"/><rect x="251" y="32" width="10" height="10" rx="2" ry="2" fill="#176634"/><rect x="251" y="44" width="10" height="10" rx="2" ry="2" fill="#3a9251"/><rect x="251" y="56" width="10" height="10" rx="2" ry="2" fill="#3b444c99"/><rect x="251" y="68" width="10" height="10" rx="2" ry="2" fill="#3b444c99"/><rect x="251" y="80" width="10" height="10" rx="2" ry="2" fill="#186735"/><rect x="251" y="92" width="10" height="10" rx="2" ry="2" fill="#3b444c99"/><rect x="263" y="20" width="10" height="10" rx="2" ry="2" fill="#3b444c99"/><rect x="263" y="32" width="10" height="10" rx="2" ry="2" fill="#186735"/><rect x="263" y="44" width="10" height="10" rx="2" ry="2" fill="#3b444c99"/><rect x="263" y="56" width="10" height="10" rx="2" ry="2" fill="#3b444c99"/><rect x="263" y="68" width="10" height="10" rx="2" ry="2" fill="#3b444c99"/><rect x="263" y="80" width="10" height="10" rx="2" ry="2" fill="#3b444c99"/><rect x="263" y="92" width="10" height="10" rx="2" ry="2" fill="#3b444c99"/><rect x="275" y="20" width="10" height="10" rx="2" ry="2" fill="#3b444c99"/><rect x="275" y="32" width="10" height="10" rx="2" ry="2" fill="#3b444c99"/><rect x="275" y="44" width="10" height="10" rx="2" ry="2" fill="#1a6a37"/><rect x="275" y="56" width="10" height="10" rx="2" ry="2" fill="#3b444c99"/><rect x="275" y="68" width="10" height="10" rx="2" ry="2" fill="#3b444c99"/><rect x="275" y="80" width="10" height="10" rx="2" ry="2" fill="#3b444c99"/><rect x="275" y="92" width="10" height="10" rx="2" ry="2" fill="#176634"/><rect x="287" y="20" width="10" height="10" rx="2" ry="2" fill="#176634"/><rect x="287" y="32" width="10" height="10" rx="2" ry="2" fill="#186735"/><rect x="287" y="44" width="10" height="10" rx="2" ry="2" fill="#176634"/><rect x="287" y="56" width="10" height="10" rx="2" ry="2" fill="#176634"/><rect x="287" y="68" width="10" height="10" rx="2" ry="2" fill="#176634"/><rect x="287" y="80" width="10" height="10" rx="2" ry="2" fill="#176634"/><rect x="287" y="92" width="10" height="10" rx="2" ry="2" fill="#3b444c99"/><rect x="299" y="20" width="10" height="10" rx="2" ry="2" fill="#196936"/><rect x="299" y="32" width="10" height="10" rx="2" ry="2" fill="#20713c"/><rect x="299" y="44" width="10" height="10" rx="2" ry="2" fill="#3b444c99"/><rect x="299" y="56" width="10" height="10" rx="2" ry="2" fill="#3b444c99"/><rect x="299" y="68" width="10" height="10" rx="2" ry="2" fill="#3b444c99"/><rect x="299" y="80" width="10" height="10" rx="2" ry="2" fill="#3b444c99"/><rect x="299" y="92" width="10" height="10" rx="2" ry="2" fill="#3b444c99"/><rect x="311" y="20" width="10" height="10" rx="2" ry="2" fill="#1b6c38"/><rect x="311" y="32" width="10" height="10" rx="2" ry="2" fill="#3b444c99"/><rect x="311" y="44" width="10" height="10" rx="2" ry="2" fill="#186735"/><rect x="311" y="56" width="10" height="10" rx="2" ry="2" fill="#3b444c99"/><rect x="311" y="68" width="10" height="10" rx="2" ry="2" fill="#3b444c99"/><rect x="311" y="80" width="10" height="10" rx="2" ry="2" fill="#3b444c99"/><rect x="311" y="92" width="10" height="10" rx="2" ry="2" fill="#3b444c99"/><rect x="323" y="20" width="10" height="10" rx="2" ry="2" fill="#3b444c99"/><rect x="323" y="32" width="10" height="10" rx="2" ry="2" fill="#3b444c99"/><rect x="323" y="44" width="10" height="10" rx="2" ry="2" fill="#3b444c99"/><rect x="323" y="56" width="10" height="10" rx="2" ry="2" fill="#3b444c99"/><rect x="323" y="68" width="10" height="10" rx="2" ry="2" fill="#3b444c99"/><rect x="323" y="80" width="10" height="10" rx="2" ry="2" fill="#3b444c99"/><rect x="323" y="92" width="10" height="10" rx="2" ry="2" fill="#3b444c99"/><rect x="335" y="20" width="10" height="10" rx="2" ry="2" fill="#176634"/><rect x="335" y="32" width="10" height="10" rx="2" ry="2" fill="#3b444c99"/><rect x="335" y="44" width="10" height="10" rx="2" ry="2" fill="#3b444c99"/><rect x="335" y="56" width="10" height="10" rx="2" ry="2" fill="#3b444c99"/><rect x="335" y="68" width="10" height="10" rx="2" ry="2" fill="#196936"/><rect x="335" y="80" width="10" height="10" rx="2" ry="2" fill="#1a6a37"/><rect x="335" y="92" width="10" height="10" rx="2" ry="2" fill="#3b444c99"/><rect x="347" y="20" width="10" height="10" rx="2" ry="2" fill="#3b444c99"/><rect x="347" y="32" width="10" height="10" rx="2" ry="2" fill="#3b444c99"/><rect x="347" y="44" width="10" height="10" rx="2" ry="2" fill="#176634"/><rect x="347" y="56" width="10" height="10" rx="2" ry="2" fill="#3b444c99"/><rect x="347" y="68" width="10" height="10" rx="2" ry="2" fill="#3b444c99"/><rect x="347" y="80" width="10" height="10" rx="2" ry="2" fill="#3b444c99"/><rect x="347" y="92" width="10" height="10" rx="2" ry="2" fill="#3b444c99"/><rect x="359" y="20" width="10" height="10" rx="2" ry="2" fill="#3b444c99"/><rect x="359" y="32" width="10" height="10" rx="2" ry="2" fill="#3b444c99"/><rect x="359" y="44" width="10" height="10" rx="2" ry="2" fill="#3b444c99"/><rect x="359" y="56" width="10" height="10" rx="2" ry="2" fill="#3b444c99"/><rect x="359" y="68" width="10" height="10" rx="2" ry="2" fill="#3b444c99"/><rect x="359" y="80" width="10" height="10" rx="2" ry="2" fill="#3b444c99"/><rect x="359" y="92" width="10" height="10" rx="2" ry="2" fill="#3b444c99"/><rect x="371" y="20" width="10" height="10" rx="2" ry="2" fill="#3b444c99"/><rect x="371" y="32" width="10" height="10" rx="2" ry="2" fill="#3b444c99"/><rect x="371" y="44" width="10" height="10" rx="2" ry="2" fill="#3b444c99"/><rect x="371" y="56" width="10" height="10" rx="2" ry="2" fill="#3b444c99"/><rect x="371" y="68" width="10" height="10" rx="2" ry="2" fill="#3b444c99"/><rect x="371" y="80" width="10" height="10" rx="2" ry="2" fill="#3b444c99"/><rect x="371" y="92" width="10" height="10" rx="2" ry="2" fill="#3b444c99"/><rect x="383" y="20" width="10" height="10" rx="2" ry="2" fill="#3b444c99"/><rect x="383" y="32" width="10" height="10" rx="2" ry="2" fill="#3b444c99"/><rect x="383" y="44" width="10" height="10" rx="2" ry="2" fill="#3b444c99"/><rect x="383" y="56" width="10" height="10" rx="2" ry="2" fill="#3b444c99"/><rect x="383" y="68" width="10" height="10" rx="2" ry="2" fill="#3b444c99"/><rect x="383" y="80" width="10" height="10" rx="2" ry="2" fill="#3b444c99"/><rect x="383" y="92" width="10" height="10" rx="2" ry="2" fill="#3b444c99"/><rect x="395" y="20" width="10" height="10" rx="2" ry="2" fill="#3b444c99"/><rect x="395" y="32" width="10" height="10" rx="2" ry="2" fill="#3b444c99"/><rect x="395" y="44" width="10" height="10" rx="2" ry="2" fill="#3b444c99"/><rect x="395" y="56" width="10" height="10" rx="2" ry="2" fill="#3b444c99"/><rect x="395" y="68" width="10" height="10" rx="2" ry="2" fill="#3b444c99"/><rect x="395" y="80" width="10" height="10" rx="2" ry="2" fill="#3b444c99"/><rect x="395" y="92" width="10" height="10" rx="2" ry="2" fill="#3b444c99"/><rect x="407" y="20" width="10" height="10" rx="2" ry="2" fill="#3b444c99"/><rect x="407" y="32" width="10" height="10" rx="2" ry="2" fill="#3b444c99"/><rect x="407" y="44" width="10" height="10" rx="2" ry="2" fill="#3b444c99"/><rect x="407" y="56" width="10" height="10" rx="2" ry="2" fill="#196936"/><rect x="407" y="68" width="10" height="10" rx="2" ry="2" fill="#3b444c99"/><rect x="407" y="80" width="10" height="10" rx="2" ry="2" fill="#176634"/><rect x="407" y="92" width="10" height="10" rx="2" ry="2" fill="#3b444c99"/><rect x="419" y="20" width="10" height="10" rx="2" ry="2" fill="#3b444c99"/><rect x="419" y="32" width="10" height="10" rx="2" ry="2" fill="#3b444c99"/><rect x="419" y="44" width="10" height="10" rx="2" ry="2" fill="#3b444c99"/><rect x="419" y="56" width="10" height="10" rx="2" ry="2" fill="#3b444c99"/><rect x="419" y="68" width="10" height="10" rx="2" ry="2" fill="#3b444c99"/><rect x="419" y="80" width="10" height="10" rx="2" ry="2" fill="#3b444c99"/><rect x="419" y="92" width="10" height="10" rx="2" ry="2" fill="#3b444c99"/><rect x="431" y="20" width="10" height="10" rx="2" ry="2" fill="#3b444c99"/><rect x="431" y="32" width="10" height="10" rx="2" ry="2" fill="#3b444c99"/><rect x="431" y="44" width="10" height="10" rx="2" ry="2" fill="#3b444c99"/><rect x="431" y="56" width="10" height="10" rx="2" ry="2" fill="#3b444c99"/><rect x="431" y="68" width="10" height="10" rx="2" ry="2" fill="#3b444c99"/><rect x="431" y="80" width="10" height="10" rx="2" ry="2" fill="#3b444c99"/><rect x="431" y="92" width="10" height="10" rx="2" ry="2" fill="#1c6d39"/><rect x="443" y="20" width="10" height="10" rx="2" ry="2" fill="#3b444c99"/><rect x="443" y="32" width="10" height="10" rx="2" ry="2" fill="#3b444c99"/><rect x="443" y="44" width="10" height="10" rx="2" ry="2" fill="#3b444c99"/><rect x="443" y="56" width="10" height="10" rx="2" ry="2" fill="#3b444c99"/><rect x="443" y="68" width="10" height="10" rx="2" ry="2" fill="#196936"/><rect x="443" y="80" width="10" height="10" rx="2" ry="2" fill="#3b444c99"/><rect x="443" y="92" width="10" height="10" rx="2" ry="2" fill="#3b444c99"/><rect x="455" y="20" width="10" height="10" rx="2" ry="2" fill="#3b444c99"/><rect x="455" y="32" width="10" height="10" rx="2" ry="2" fill="#186735"/><rect x="455" y="44" width="10" height="10" rx="2" ry="2" fill="#3b444c99"/><rect x="455" y="56" width="10" height="10" rx="2" ry="2" fill="#3b444c99"/><rect x="455" y="68" width="10" height="10" rx="2" ry="2" fill="#1a6a37"/><rect x="455" y="80" width="10" height="10" rx="2" ry="2" fill="#3b444c99"/><rect x="455" y="92" width="10" height="10" rx="2" ry="2" fill="#3b444c99"/><rect x="467" y="20" width="10" height="10" rx="2" ry="2" fill="#277a41"/><rect x="467" y="32" width="10" height="10" rx="2" ry="2" fill="#3b444c99"/><rect x="467" y="44" width="10" height="10" rx="2" ry="2" fill="#3b444c99"/><rect x="467" y="56" width="10" height="10" rx="2" ry="2" fill="#3b444c99"/><rect x="467" y="68" width="10" height="10" rx="2" ry="2" fill="#3b444c99"/><rect x="467" y="80" width="10" height="10" rx="2" ry="2" fill="#176634"/><rect x="467" y="92" width="10" height="10" rx="2" ry="2" fill="#3b444c99"/><rect x="479" y="20" width="10" height="10" rx="2" ry="2" fill="#196936"/><rect x="479" y="32" width="10" height="10" rx="2" ry="2" fill="#3b444c99"/><rect x="479" y="44" width="10" height="10" rx="2" ry="2" fill="#3b444c99"/><rect x="479" y="56" width="10" height="10" rx="2" ry="2" fill="#3b444c99"/><rect x="479" y="68" width="10" height="10" rx="2" ry="2" fill="#3b444c99"/><rect x="479" y="80" width="10" height="10" rx="2" ry="2" fill="#3b444c99"/><rect x="479" y="92" width="10" height="10" rx="2" ry="2" fill="#3b444c99"/><rect x="491" y="20" width="10" height="10" rx="2" ry="2" fill="#3b444c99"/><rect x="491" y="32" width="10" height="10" rx="2" ry="2" fill="#3b444c99"/><rect x="491" y="44" width="10" height="10" rx="2" ry="2" fill="#3b444c99"/><rect x="491" y="56" width="10" height="10" rx="2" ry="2" fill="#3b444c99"/><rect x="491" y="68" width="10" height="10" rx="2" ry="2" fill="#3b444c99"/><rect x="491" y="80" width="10" height="10" rx="2" ry="2" fill="#3b444c99"/><rect x="491" y="92" width="10" height="10" rx="2" ry="2" fill="#3b444c99"/><rect x="503" y="20" width="10" height="10" rx="2" ry="2" fill="#3b444c99"/><rect x="503" y="32" width="10" height="10" rx="2" ry="2" fill="#3b444c99"/><rect x="503" y="44" width="10" height="10" rx="2" ry="2" fill="#3b444c99"/><rect x="503" y="56" width="10" height="10" rx="2" ry="2" fill="#3b444c99"/><rect x="503" y="68" width="10" height="10" rx="2" ry="2" fill="#3b444c99"/><rect x="503" y="80" width="10" height="10" rx="2" ry="2" fill="#3b444c99"/><rect x="503" y="92" width="10" height="10" rx="2" ry="2" fill="#3b444c99"/><rect x="515" y="20" width="10" height="10" rx="2" ry="2" fill="#3b444c99"/><rect x="515" y="32" width="10" height="10" rx="2" ry="2" fill="#3b444c99"/><rect x="515" y="44" width="10" height="10" rx="2" ry="2" fill="#186735"/><rect x="515" y="56" width="10" height="10" rx="2" ry="2" fill="#3b444c99"/><rect x="515" y="68" width="10" height="10" rx="2" ry="2" fill="#3b444c99"/><rect x="515" y="80" width="10" height="10" rx="2" ry="2" fill="#3b444c99"/><rect x="515" y="92" width="10" height="10" rx="2" ry="2" fill="#1a6a37"/><rect x="527" y="20" width="10" height="10" rx="2" ry="2" fill="#186735"/><rect x="527" y="32" width="10" height="10" rx="2" ry="2" fill="#176634"/><rect x="527" y="44" width="10" height="10" rx="2" ry="2" fill="#3b444c99"/><rect x="527" y="56" width="10" height="10" rx="2" ry="2" fill="#196936"/><rect x="527" y="68" width="10" height="10" rx="2" ry="2" fill="#3b444c99"/><rect x="527" y="80" width="10" height="10" rx="2" ry="2" fill="#3b444c99"/><rect x="527" y="92" width="10" height="10" rx="2" ry="2" fill="#3b444c99"/><rect x="539" y="20" width="10" height="10" rx="2" ry="2" fill="#196936"/><rect x="539" y="32" width="10" height="10" rx="2" ry="2" fill="#3b444c99"/><rect x="539" y="44" width="10" height="10" rx="2" ry="2" fill="#176634"/><rect x="539" y="56" width="10" height="10" rx="2" ry="2" fill="#3b444c99"/><rect x="539" y="68" width="10" height="10" rx="2" ry="2" fill="#3b444c99"/><rect x="539" y="80" width="10" height="10" rx="2" ry="2" fill="#176634"/><rect x="539" y="92" width="10" height="10" rx="2" ry="2" fill="#3b444c99"/><rect x="551" y="20" width="10" height="10" rx="2" ry="2" fill="#196936"/><rect x="551" y="32" width="10" height="10" rx="2" ry="2" fill="#1a6a37"/><rect x="551" y="44" width="10" height="10" rx="2" ry="2" fill="#176634"/><rect x="551" y="56" width="10" height="10" rx="2" ry="2" fill="#3b444c99"/><rect x="551" y="68" width="10" height="10" rx="2" ry="2" fill="#196936"/><rect x="551" y="80" width="10" height="10" rx="2" ry="2" fill="#176634"/><rect x="551" y="92" width="10" height="10" rx="2" ry="2" fill="#3b444c99"/><rect x="563" y="20" width="10" height="10" rx="2" ry="2" fill="#196936"/><rect x="563" y="32" width="10" height="10" rx="2" ry="2" fill="#176634"/><rect x="563" y="44" width="10" height="10" rx="2" ry="2" fill="#196936"/><rect x="563" y="56" width="10" height="10" rx="2" ry="2" fill="#176634"/><rect x="563" y="68" width="10" height="10" rx="2" ry="2" fill="#3b444c99"/><rect x="563" y="80" width="10" height="10" rx="2" ry="2" fill="#3b444c99"/><rect x="563" y="92" width="10" height="10" rx="2" ry="2" fill="#3b444c99"/></svg>