<svg xmlns="http://www.w3.org/2000/svg" width="476" height="104"><rect x="0" y="0" width="10" height="10" rx="2" ry="2" fill="#ebedf0"/><rect x="0" y="12" width="10" height="10" rx="2" ry="2" fill="#ebedf0"/><rect x="0" y="24" width="10" height="10" rx="2" ry="2" fill="#ebedf0"/><rect x="0" y="36" width="10" height="10" rx="2" ry="2" fill="#ebedf0"/><rect x="0" y="48" width="10" height="10" rx="2" ry="2" fill="#71d77e"/><rect x="0" y="60" width="10" height="10" rx="2" ry="2" fill="#ebedf0"/><rect x="0" y="72" width="10" height="10" rx="2" ry="2" fill="#ebedf0"/><rect x="12" y="0" width="10" height="10" rx="2" ry="2" fill="#ebedf0"/><rect x="12" y="12" width="10" height="10" rx="2" ry="2" fill="#ebedf0"/><rect x="12" y="24" width="10" height="10" rx="2" ry="2" fill="#ebedf0"/><rect x="12" y="36" width="10" height="10" rx="2" ry="2" fill="#ebedf0"/><rect x="12" y="48" width="10" height="10" rx="2" ry="2" fill="#ebedf0"/><rect x="12" y="60" width="10" height="10" rx="2" ry="2" fill="#71d77e"/><rect x="12" y="72" width="10" height="10" rx="2" ry="2" fill="#ebedf0"/><rect x="24" y="0" width="10" height="10" rx="2" ry="2" fill="#ebedf0"/><rect x="24" y="12" width="10" height="10" rx="2" ry="2" fill="#ebedf0"/><rect x="24" y="24" width="10" height="10" rx="2" ry="2" fill="#ebedf0"/><rect x="24" y="36" width="10" height="10" rx="2" ry="2" fill="#419b57"/><rect x="24" y="48" width="10" height="10" rx="2" ry="2" fill="#ebedf0"/><rect x="24" y="60" width="10" height="10" rx="2" ry="2" fill="#6ed37b"/><rect x="24" y="72" width="10" height="10" rx="2" ry="2" fill="#6fd47c"/><rect x="36" y="0" width="10" height="10" rx="2" ry="2" fill="#62c472"/><rect x="36" y="12" width="10" height="10" rx="2" ry="2" fill="#70d67d"/><rect x="36" y="24" width="10" height="10" rx="2" ry="2" fill="#ebedf0"/><rect x="36" y="36" width="10" height="10" rx="2" ry="2" fill="#ebedf0"/><rect x="36" y="48" width="10" height="10" rx="2" ry="2" fill="#ebedf0"/><rect x="36" y="60" width="10" height="10" rx="2" ry="2" fill="#ebedf0"/><rect x="36" y="72" width="10" height="10" rx="2" ry="2" fill="#ebedf0"/><rect x="48" y="0" width="10" height="10" rx="2" ry="2" fill="#ebedf0"/><rect x="48" y="12" width="10" height="10" rx="2" ry="2" fill="#ebedf0"/><rect x="48" y="24" width="10" height="10" rx="2" ry="2" fill="#ebedf0"/><rect x="48" y="36" width="10" height="10" rx="2" ry="2" fill="#ebedf0"/><rect x="48" y="48" width="10" height="10" rx="2" ry="2" fill="#ebedf0"/><rect x="48" y="60" width="10" height="10" rx="2" ry="2" fill="#ebedf0"/><rect x="48" y="72" width="10" height="10" rx="2" ry="2" fill="#ebedf0"/><rect x="60" y="0" width="10" height="10" rx="2" ry="2" fill="#ebedf0"/><rect x="60" y="12" width="10" height="10" rx="2" ry="2" fill="#ebedf0"/><rect x="60" y="24" width="10" height="10" rx="2" ry="2" fill="#ebedf0"/><rect x="60" y="36" width="10" height="10" rx="2" ry="2" fill="#ebedf0"/><rect x="60" y="48" width="10" height="10" rx="2" ry="2" fill="#ebedf0"/><rect x="60" y="60" width="10" height="10" rx="2" ry="2" fill="#ebedf0"/><rect x="60" y="72" width="10" height="10" rx="2" ry="2" fill="#ebedf0"/><rect x="72" y="0" width="10" height="10" rx="2" ry="2" fill="#ebedf0"/><rect x="72" y="12" width="10" height="10" rx="2" ry="2" fill="#ebedf0"/><rect x="72" y="24" width="10" height="10" rx="2" ry="2" fill="#ebedf0"/><rect x="72" y="36" width="10" height="10" rx="2" ry="2" fill="#ebedf0"/><rect x="72" y="48" width="10" height="10" rx="2" ry="2" fill="#22743e"/><rect x="72" y="60" width="10" height="10" rx="2" ry="2" fill="#6ace78"/><rect x="72" y="72" width="10" height="10" rx="2" ry="2" fill="#67ca75"/><rect x="84" y="0" width="10" height="10" rx="2" ry="2" fill="#6dd17a"/><rect x="84" y="12" width="10" height="10" rx="2" ry="2" fill="#70d67d"/><rect x="84" y="24" width="10" height="10" rx="2" ry="2" fill="#ebedf0"/><rect x="84" y="36" width="10" height="10" rx="2" ry="2" fill="#ebedf0"/><rect x="84" y="48" width="10" height="10" rx="2" ry="2" fill="#71d77e"/><rect x="84" y="60" width="10" height="10" rx="2" ry="2" fill="#ebedf0"/><rect x="84" y="72" width="10" height="10" rx="2" ry="2" fill="#ebedf0"/><rect x="96" y="0" width="10" height="10" rx="2" ry="2" fill="#64c672"/><rect x="96" y="12" width="10" height="10" rx="2" ry="2" fill="#31874a"/><rect x="96" y="24" width="10" height="10" rx="2" ry="2" fill="#166534"/><rect x="96" y="36" width="10" height="10" rx="2" ry="2" fill="#6fd47c"/><rect x="96" y="48" width="10" height="10" rx="2" ry="2" fill="#ebedf0"/><rect x="96" y="60" width="10" height="10" rx="2" ry="2" fill="#ebedf0"/><rect x="96" y="72" width="10" height="10" rx="2" ry="2" fill="#ebedf0"/><rect x="108" y="0" width="10" height="10" rx="2" ry="2" fill="#ebedf0"/><rect x="108" y="12" width="10" height="10" rx="2" ry="2" fill="#ebedf0"/><rect x="108" y="24" width="10" height="10" rx="2" ry="2" fill="#ebedf0"/><rect x="108" y="36" width="10" height="10" rx="2" ry="2" fill="#71d77e"/><rect x="108" y="48" width="10" height="10" rx="2" ry="2" fill="#71d77e"/><rect x="108" y="60" width="10" height="10" rx="2" ry="2" fill="#ebedf0"/><rect x="108" y="72" width="10" height="10" rx="2" ry="2" fill="#70d67d"/><rect x="120" y="0" width="10" height="10" rx="2" ry="2" fill="#ebedf0"/><rect x="120" y="12" width="10" height="10" rx="2" ry="2" fill="#ebedf0"/><rect x="120" y="24" width="10" height="10" rx="2" ry="2" fill="#ebedf0"/><rect x="120" y="36" width="10" height="10" rx="2" ry="2" fill="#ebedf0"/><rect x="120" y="48" width="10" height="10" rx="2" ry="2" fill="#ebedf0"/><rect x="120" y="60" width="10" height="10" rx="2" ry="2" fill="#ebedf0"/><rect x="120" y="72" width="10" height="10" rx="2" ry="2" fill="#ebedf0"/><rect x="132" y="0" width="10" height="10" rx="2" ry="2" fill="#ebedf0"/><rect x="132" y="12" width="10" height="10" rx="2" ry="2" fill="#ebedf0"/><rect x="132" y="24" width="10" height="10" rx="2" ry="2" fill="#71d77e"/><rect x="132" y="36" width="10" height="10" rx="2" ry="2" fill="#71d77e"/><rect x="132" y="48" width="10" height="10" rx="2" ry="2" fill="#5cbc6c"/><rect x="132" y="60" width="10" height="10" rx="2" ry="2" fill="#70d67d"/><rect x="132" y="72" width="10" height="10" rx="2" ry="2" fill="#71d77e"/><rect x="144" y="0" width="10" height="10" rx="2" ry="2" fill="#6fd47c"/><rect x="144" y="12" width="10" height="10" rx="2" ry="2" fill="#71d77e"/><rect x="144" y="24" width="10" height="10" rx="2" ry="2" fill="#ebedf0"/><rect x="144" y="36" width="10" height="10" rx="2" ry="2" fill="#ebedf0"/><rect x="144" y="48" width="10" height="10" rx="2" ry="2" fill="#ebedf0"/><rect x="144" y="60" width="10" height="10" rx="2" ry="2" fill="#ebedf0"/><rect x="144" y="72" width="10" height="10" rx="2" ry="2" fill="#6ed37b"/><rect x="156" y="0" width="10" height="10" rx="2" ry="2" fill="#ebedf0"/><rect x="156" y="12" width="10" height="10" rx="2" ry="2" fill="#71d77e"/><rect x="156" y="24" width="10" height="10" rx="2" ry="2" fill="#ebedf0"/><rect x="156" y="36" width="10" height="10" rx="2" ry="2" fill="#ebedf0"/><rect x="156" y="48" width="10" height="10" rx="2" ry="2" fill="#ebedf0"/><rect x="156" y="60" width="10" height="10" rx="2" ry="2" fill="#ebedf0"/><rect x="156" y="72" width="10" height="10" rx="2" ry="2" fill="#71d77e"/><rect x="168" y="0" width="10" height="10" rx="2" ry="2" fill="#ebedf0"/><rect x="168" y="12" width="10" height="10" rx="2" ry="2" fill="#ebedf0"/><rect x="168" y="24" width="10" height="10" rx="2" ry="2" fill="#ebedf0"/><rect x="168" y="36" width="10" height="10" rx="2" ry="2" fill="#ebedf0"/><rect x="168" y="48" width="10" height="10" rx="2" ry="2" fill="#ebedf0"/><rect x="168" y="60" width="10" height="10" rx="2" ry="2" fill="#ebedf0"/><rect x="168" y="72" width="10" height="10" rx="2" ry="2" fill="#ebedf0"/><rect x="180" y="0" width="10" height="10" rx="2" ry="2" fill="#ebedf0"/><rect x="180" y="12" width="10" height="10" rx="2" ry="2" fill="#64c672"/><rect x="180" y="24" width="10" height="10" rx="2" ry="2" fill="#6ed37b"/><rect x="180" y="36" width="10" height="10" rx="2" ry="2" fill="#ebedf0"/><rect x="180" y="48" width="10" height="10" rx="2" ry="2" fill="#ebedf0"/><rect x="180" y="60" width="10" height="10" rx="2" ry="2" fill="#ebedf0"/><rect x="180" y="72" width="10" height="10" rx="2" ry="2" fill="#ebedf0"/><rect x="192" y="0" width="10" height="10" rx="2" ry="2" fill="#ebedf0"/><rect x="192" y="12" width="10" height="10" rx="2" ry="2" fill="#71d77e"/><rect x="192" y="24" width="10" height="10" rx="2" ry="2" fill="#68cc76"/><rect x="192" y="36" width="10" height="10" rx="2" ry="2" fill="#68cc76"/><rect x="192" y="48" width="10" height="10" rx="2" ry="2" fill="#71d77e"/><rect x="192" y="60" width="10" height="10" rx="2" ry="2" fill="#419b57"/><rect x="192" y="72" width="10" height="10" rx="2" ry="2" fill="#ebedf0"/><rect x="204" y="0" width="10" height="10" rx="2" ry="2" fill="#ebedf0"/><rect x="204" y="12" width="10" height="10" rx="2" ry="2" fill="#ebedf0"/><rect x="204" y="24" width="10" height="10" rx="2" ry="2" fill="#ebedf0"/><rect x="204" y="36" width="10" height="10" rx="2" ry="2" fill="#ebedf0"/><rect x="204" y="48" width="10" height="10" rx="2" ry="2" fill="#ebedf0"/><rect x="204" y="60" width="10" height="10" rx="2" ry="2" fill="#ebedf0"/><rect x="204" y="72" width="10" height="10" rx="2" ry="2" fill="#ebedf0"/><rect x="216" y="0" width="10" height="10" rx="2" ry="2" fill="#71d77e"/><rect x="216" y="12" width="10" height="10" rx="2" ry="2" fill="#71d77e"/><rect x="216" y="24" width="10" height="10" rx="2" ry="2" fill="#4eab61"/><rect x="216" y="36" width="10" height="10" rx="2" ry="2" fill="#ebedf0"/><rect x="216" y="48" width="10" height="10" rx="2" ry="2" fill="#ebedf0"/><rect x="216" y="60" width="10" height="10" rx="2" ry="2" fill="#70d67d"/><rect x="216" y="72" width="10" height="10" rx="2" ry="2" fill="#ebedf0"/><rect x="228" y="0" width="10" height="10" rx="2" ry="2" fill="#ebedf0"/><rect x="228" y="12" width="10" height="10" rx="2" ry="2" fill="#70d67d"/><rect x="228" y="24" width="10" height="10" rx="2" ry="2" fill="#ebedf0"/><rect x="228" y="36" width="10" height="10" rx="2" ry="2" fill="#ebedf0"/><rect x="228" y="48" width="10" height="10" rx="2" ry="2" fill="#ebedf0"/><rect x="228" y="60" width="10" height="10" rx="2" ry="2" fill="#ebedf0"/><rect x="228" y="72" width="10" height="10" rx="2" ry="2" fill="#ebedf0"/><rect x="240" y="0" width="10" height="10" rx="2" ry="2" fill="#ebedf0"/><rect x="240" y="12" width="10" height="10" rx="2" ry="2" fill="#ebedf0"/><rect x="240" y="24" width="10" height="10" rx="2" ry="2" fill="#6ed37b"/><rect x="240" y="36" width="10" height="10" rx="2" ry="2" fill="#ebedf0"/><rect x="240" y="48" width="10" height="10" rx="2" ry="2" fill="#ebedf0"/><rect x="240" y="60" width="10" height="10" rx="2" ry="2" fill="#ebedf0"/><rect x="240" y="72" width="10" height="10" rx="2" ry="2" fill="#71d77e"/><rect x="252" y="0" width="10" height="10" rx="2" ry="2" fill="#71d77e"/><rect x="252" y="12" width="10" height="10" rx="2" ry="2" fill="#70d67d"/><rect x="252" y="24" width="10" height="10" rx="2" ry="2" fill="#71d77e"/><rect x="252" y="36" width="10" height="10" rx="2" ry="2" fill="#71d77e"/><rect x="252" y="48" width="10" height="10" rx="2" ry="2" fill="#71d77e"/><rect x="252" y="60" width="10" height="10" rx="2" ry="2" fill="#71d77e"/><rect x="252" y="72" width="10" height="10" rx="2" ry="2" fill="#ebedf0"/><rect x="264" y="0" width="10" height="10" rx="2" ry="2" fill="#6fd47c"/><rect x="264" y="12" width="10" height="10" rx="2" ry="2" fill="#68cc76"/><rect x="264" y="24" width="10" height="10" rx="2" ry="2" fill="#ebedf0"/><rect x="264" y="36" width="10" height="10" rx="2" ry="2" fill="#ebedf0"/><rect x="264" y="48" width="10" height="10" rx="2" ry="2" fill="#ebedf0"/><rect x="264" y="60" width="10" height="10" rx="2" ry="2" fill="#ebedf0"/><rect x="264" y="72" width="10" height="10" rx="2" ry="2" fill="#ebedf0"/><rect x="276" y="0" width="10" height="10" rx="2" ry="2" fill="#6dd17a"/><rect x="276" y="12" width="10" height="10" rx="2" ry="2" fill="#ebedf0"/><rect x="276" y="24" width="10" height="10" rx="2" ry="2" fill="#70d67d"/><rect x="276" y="36" width="10" height="10" rx="2" ry="2" fill="#ebedf0"/><rect x="276" y="48" width="10" height="10" rx="2" ry="2" fill="#ebedf0"/><rect x="276" y="60" width="10" height="10" rx="2" ry="2" fill="#ebedf0"/><rect x="276" y="72" width="10" height="10" rx="2" ry="2" fill="#ebedf0"/><rect x="288" y="0" width="10" height="10" rx="2" ry="2" fill="#ebedf0"/><rect x="288" y="12" width="10" height="10" rx="2" ry="2" fill="#ebedf0"/><rect x="288" y="24" width="10" height="10" rx="2" ry="2" fill="#ebedf0"/><rect x="288" y="36" width="10" height="10" rx="2" ry="2" fill="#ebedf0"/><rect x="288" y="48" width="10" height="10" rx="2" ry="2" fill="#ebedf0"/><rect x="288" y="60" width="10" height="10" rx="2" ry="2" fill="#ebedf0"/><rect x="288" y="72" width="10" height="10" rx="2" ry="2" fill="#ebedf0"/><rect x="300" y="0" width="10" height="10" rx="2" ry="2" fill="#71d77e"/><rect x="300" y="12" width="10" height="10" rx="2" ry="2" fill="#ebedf0"/><rect x="300" y="24" width="10" height="10" rx="2" ry="2" fill="#ebedf0"/><rect x="300" y="36" width="10" height="10" rx="2" ry="2" fill="#ebedf0"/><rect x="300" y="48" width="10" height="10" rx="2" ry="2" fill="#6fd47c"/><rect x="300" y="60" width="10" height="10" rx="2" ry="2" fill="#6ed37b"/><rect x="300" y="72" width="10" height="10" rx="2" ry="2" fill="#ebedf0"/><rect x="312" y="0" width="10" height="10" rx="2" ry="2" fill="#ebedf0"/><rect x="312" y="12" width="10" height="10" rx="2" ry="2" fill="#ebedf0"/><rect x="312" y="24" width="10" height="10" rx="2" ry="2" fill="#71d77e"/><rect x="312" y="36" width="10" height="10" rx="2" ry="2" fill="#ebedf0"/><rect x="312" y="48" width="10" height="10" rx="2" ry="2" fill="#ebedf0"/><rect x="312" y="60" width="10" height="10" rx="2" ry="2" fill="#ebedf0"/><rect x="312" y="72" width="10" height="10" rx="2" ry="2" fill="#ebedf0"/><rect x="324" y="0" width="10" height="10" rx="2" ry="2" fill="#ebedf0"/><rect x="324" y="12" width="10" height="10" rx="2" ry="2" fill="#ebedf0"/><rect x="324" y="24" width="10" height="10" rx="2" ry="2" fill="#ebedf0"/><rect x="324" y="36" width="10" height="10" rx="2" ry="2" fill="#ebedf0"/><rect x="324" y="48" width="10" height="10" rx="2" ry="2" fill="#ebedf0"/><rect x="324" y="60" width="10" height="10" rx="2" ry="2" fill="#ebedf0"/><rect x="324" y="72" width="10" height="10" rx="2" ry="2" fill="#ebedf0"/><rect x="336" y="0" width="10" height="10" rx="2" ry="2" fill="#ebedf0"/><rect x="336" y="12" width="10" height="10" rx="2" ry="2" fill="#ebedf0"/><rect x="336" y="24" width="10" height="10" rx="2" ry="2" fill="#ebedf0"/><rect x="336" y="36" width="10" height="10" rx="2" ry="2" fill="#ebedf0"/><rect x="336" y="48" width="10" height="10" rx="2" ry="2" fill="#ebedf0"/><rect x="336" y="60" width="10" height="10" rx="2" ry="2" fill="#ebedf0"/><rect x="336" y="72" width="10" height="10" rx="2" ry="2" fill="#ebedf0"/><rect x="348" y="0" width="10" height="10" rx="2" ry="2" fill="#ebedf0"/><rect x="348" y="12" width="10" height="10" rx="2" ry="2" fill="#ebedf0"/><rect x="348" y="24" width="10" height="10" rx="2" ry="2" fill="#ebedf0"/><rect x="348" y="36" width="10" height="10" rx="2" ry="2" fill="#ebedf0"/><rect x="348" y="48" width="10" height="10" rx="2" ry="2" fill="#ebedf0"/><rect x="348" y="60" width="10" height="10" rx="2" ry="2" fill="#ebedf0"/><rect x="348" y="72" width="10" height="10" rx="2" ry="2" fill="#ebedf0"/><rect x="360" y="0" width="10" height="10" rx="2" ry="2" fill="#ebedf0"/><rect x="360" y="12" width="10" height="10" rx="2" ry="2" fill="#ebedf0"/><rect x="360" y="24" width="10" height="10" rx="2" ry="2" fill="#ebedf0"/><rect x="360" y="36" width="10" height="10" rx="2" ry="2" fill="#ebedf0"/><rect x="360" y="48" width="10" height="10" rx="2" ry="2" fill="#ebedf0"/><rect x="360" y="60" width="10" height="10" rx="2" ry="2" fill="#ebedf0"/><rect x="360" y="72" width="10" height="10" rx="2" ry="2" fill="#ebedf0"/><rect x="372" y="0" width="10" height="10" rx="2" ry="2" fill="#ebedf0"/><rect x="372" y="12" width="10" height="10" rx="2" ry="2" fill="#ebedf0"/><rect x="372" y="24" width="10" height="10" rx="2" ry="2" fill="#ebedf0"/><rect x="372" y="36" width="10" height="10" rx="2" ry="2" fill="#6fd47c"/><rect x="372" y="48" width="10" height="10" rx="2" ry="2" fill="#ebedf0"/><rect x="372" y="60" width="10" height="10" rx="2" ry="2" fill="#71d77e"/><rect x="372" y="72" width="10" height="10" rx="2" ry="2" fill="#ebedf0"/><rect x="384" y="0" width="10" height="10" rx="2" ry="2" fill="#ebedf0"/><rect x="384" y="12" width="10" height="10" rx="2" ry="2" fill="#ebedf0"/><rect x="384" y="24" width="10" height="10" rx="2" ry="2" fill="#ebedf0"/><rect x="384" y="36" width="10" height="10" rx="2" ry="2" fill="#ebedf0"/><rect x="384" y="48" width="10" height="10" rx="2" ry="2" fill="#ebedf0"/><rect x="384" y="60" width="10" height="10" rx="2" ry="2" fill="#ebedf0"/><rect x="384" y="72" width="10" height="10" rx="2" ry="2" fill="#ebedf0"/><rect x="396" y="0" width="10" height="10" rx="2" ry="2" fill="#ebedf0"/><rect x="396" y="12" width="10" height="10" rx="2" ry="2" fill="#ebedf0"/><rect x="396" y="24" width="10" height="10" rx="2" ry="2" fill="#ebedf0"/><rect x="396" y="36" width="10" height="10" rx="2" ry="2" fill="#ebedf0"/><rect x="396" y="48" width="10" height="10" rx="2" ry="2" fill="#ebedf0"/><rect x="396" y="60" width="10" height="10" rx="2" ry="2" fill="#ebedf0"/><rect x="396" y="72" width="10" height="10" rx="2" ry="2" fill="#6cd079"/><rect x="408" y="0" width="10" height="10" rx="2" ry="2" fill="#ebedf0"/><rect x="408" y="12" width="10" height="10" rx="2" ry="2" fill="#ebedf0"/><rect x="408" y="24" width="10" height="10" rx="2" ry="2" fill="#ebedf0"/><rect x="408" y="36" width="10" height="10" rx="2" ry="2" fill="#ebedf0"/><rect x="408" y="48" width="10" height="10" rx="2" ry="2" fill="#6fd47c"/><rect x="408" y="60" width="10" height="10" rx="2" ry="2" fill="#ebedf0"/><rect x="408" y="72" width="10" height="10" rx="2" ry="2" fill="#ebedf0"/><rect x="420" y="0" width="10" height="10" rx="2" ry="2" fill="#ebedf0"/><rect x="420" y="12" width="10" height="10" rx="2" ry="2" fill="#70d67d"/><rect x="420" y="24" width="10" height="10" rx="2" ry="2" fill="#ebedf0"/><rect x="420" y="36" width="10" height="10" rx="2" ry="2" fill="#ebedf0"/><rect x="420" y="48" width="10" height="10" rx="2" ry="2" fill="#6ed37b"/><rect x="420" y="60" width="10" height="10" rx="2" ry="2" fill="#ebedf0"/><rect x="420" y="72" width="10" height="10" rx="2" ry="2" fill="#ebedf0"/><rect x="432" y="0" width="10" height="10" rx="2" ry="2" fill="#61c371"/><rect x="432" y="12" width="10" height="10" rx="2" ry="2" fill="#ebedf0"/><rect x="432" y="24" width="10" height="10" rx="2" ry="2" fill="#ebedf0"/><rect x="432" y="36" width="10" height="10" rx="2" ry="2" fill="#ebedf0"/><rect x="432" y="48" width="10" height="10" rx="2" ry="2" fill="#ebedf0"/><rect x="432" y="60" width="10" height="10" rx="2" ry="2" fill="#71d77e"/><rect x="432" y="72" width="10" height="10" rx="2" ry="2" fill="#ebedf0"/><rect x="444" y="0" width="10" height="10" rx="2" ry="2" fill="#6fd47c"/><rect x="444" y="12" width="10" height="10" rx="2" ry="2" fill="#ebedf0"/><rect x="444" y="24" width="10" height="10" rx="2" ry="2" fill="#ebedf0"/><rect x="444" y="36" width="10" height="10" rx="2" ry="2" fill="#ebedf0"/><rect x="444" y="48" width="10" height="10" rx="2" ry="2" fill="#ebedf0"/><rect x="444" y="60" width="10" height="10" rx="2" ry="2" fill="#ebedf0"/><rect x="444" y="72" width="10" height="10" rx="2" ry="2" fill="#ebedf0"/></svg>